{"title":"How Met Your Mother S09E17 HDTV x264 AAC E-Subs [GWC].mp4","uid":9565562,"size":72801931,"categoryP":"video","categoryS":"tv_shows","magnet":"?xt=urn:btih:baab7591b0ef8fe76eb6a9532a0edd8ea40f9fd5&amp;dn=How+Met+Your+Mother+S09E17+HDTV+x264+AAC+E-Subs+%5BGWC%5D.mp4&amp;tr=udp%3A%2F%2Ftracker.openbittorrent.com%3A80&amp;tr=udp%3A%2F%2Fopen.demonii.com%3A1337&amp;tr=udp%3A%2F%2Ftracker.coppersurfer.tk%3A6969&amp;tr=udp%3A%2F%2Fexodus.desync.com%3A6969","seeders":3,"leechers":0,"uploader":"canc232","files":1,"time":1391505092,"description":"How Met Your Mother S09E17 HDTV x264 AAC E-Subs [GWC] \n\n\nSCREENS : &lt;a href=&quot;\nhttp://s20.postimg.org/3y5sv8wvx/How_Met_Your_Mother_S09_E17_12_20_28.jpg&quot; rel=&quot;nofollow&quot; target=&quot;_NEW&quot;&gt;\nhttp://s20.postimg.org/3y5sv8wvx/How_Met_Your_Mother_S09_E17_12_20_28.jpg&lt;/a&gt; &lt;a href=&quot;\nhttp://s20.postimg.org/r9pb6llrx/How_Met_Your_Mother_S09_E17_12_21_16.jpg&quot; rel=&quot;nofollow&quot; target=&quot;_NEW&quot;&gt;\nhttp://s20.postimg.org/r9pb6llrx/How_Met_Your_Mother_S09_E17_12_21_16.jpg&lt;/a&gt; &lt;a href=&quot;\nhttp://s20.postimg.org/sq5f2he2l/How_Met_Your_Mother_S09_E17_12_25_04.jpg&quot; rel=&quot;nofollow&quot; target=&quot;_NEW&quot;&gt;\nhttp://s20.postimg.org/sq5f2he2l/How_Met_Your_Mother_S09_E17_12_25_04.jpg&lt;/a&gt;\n\n\nMEDIA INFO :\nGeneral \nFormat : MPEG-4 \nFormat profile : Base Media \nFile size : 69.4 MiB \nDuration : 21mn 29s \nOverall bit rate mode : Variable \nOverall bit rate : 452 Kbps \n\nVideo \nFormat : AVC \nFormat profile : &lt;a class=&quot;__cf_email__&quot; href=&quot;/cdn-cgi/l/email-protection&quot; data-cfemail=&quot;c28aaba5aa828ef1ecf2&quot;&gt;[email&amp;#160;protected]&lt;/a&gt;&lt;script cf-hash='f9e31' type=&quot;text/javascript&quot;&gt;\n/* &lt;![CDATA[ */!function(){try{var t=&quot;currentScript&quot;in document?document.currentScript:function(){for(var t=document.getElementsByTagName(&quot;script&quot;),e=t.length;e--;)if(t[e].getAttribute(&quot;cf-hash&quot;))return t[e]}();if(t&amp;&amp;t.previousSibling){var e,r,n,i,c=t.previousSibling,a=c.getAttribute(&quot;data-cfemail&quot;);if(a){for(e=&quot;&quot;,r=parseInt(a.substr(0,2),16),n=2;a.length-n;n+=2)i=parseInt(a.substr(n,2),16)^r,e+=String.fromCharCode(i);e=document.createTextNode(e),c.parentNode.replaceChild(e,c)}}}catch(u){}}();/* ]]&gt; */&lt;/script&gt; \nFormat settings, CABAC : Yes \nFormat settings, ReFrames : 4 frames \nDuration : 21mn 29s \nBit rate : 388 Kbps \nMaximum bit rate : 1 318 Kbps \nWidth : 720 pixels \nHeight : 404 pixels \nDisplay aspect ratio : 16:9 \nFrame rate : 23.976 fps \nStream size : 59.7 MiB (86%) \nTitle : How Met Your Mother S09E17 HDTV x264 AAC E-Subs [GWC] \nWriting library : x264 core \n\nAudio \nFormat : AAC \nFormat profile : HE-AAC / LC \nDuration : 21mn 29s \nBit rate mode : Variable \nChannel(s) : 2 channels \nChannel positions : Front: L R \nSampling rate : 48.0 KHz / 24.0 KHz \nStream size : 9.23 MiB (13%) \nLanguage : English \n\nText \nFormat : Timed Text \nDuration : 21mn 10s \nBit rate mode : Variable \nStream size : 18.2 KiB (0%) \nTitle : English Subtitle by elderman \nLanguage : English \n","torrent":{"xt":"urn:btih:baab7591b0ef8fe76eb6a9532a0edd8ea40f9fd5","amp;dn":"How+Met+Your+Mother+S09E17+HDTV+x264+AAC+E-Subs+%5BGWC%5D.mp4","amp;tr":["udp%3A%2F%2Ftracker.openbittorrent.com%3A80","udp%3A%2F%2Fopen.demonii.com%3A1337","udp%3A%2F%2Ftracker.coppersurfer.tk%3A6969","udp%3A%2F%2Fexodus.desync.com%3A6969"],"infoHash":"baab7591b0ef8fe76eb6a9532a0edd8ea40f9fd5","infoHashBuffer":{"type":"Buffer","data":[186,171,117,145,176,239,143,231,110,182,169,83,42,14,221,142,164,15,159,213]},"announce":[],"urlList":[]}}